<svg width="24" height="24" viewBox="0 0 24 24" fill="none" xmlns="http://www.w3.org/2000/svg">
  <path d="M12 2C6.477 2 2 6.477 2 12c0 1.89.525 3.66 1.438 5.168L2 22l4.932-1.416A9.954 9.954 0 0012 22c5.523 0 10-4.477 10-10S17.523 2 12 2z" fill="#16A34A"/>
  <path d="M16.75 14.5c-.25-.125-1.475-.725-1.7-.808-.225-.083-.39-.125-.554.125-.163.25-.638.808-.783.975-.144.163-.288.183-.538.058-.25-.125-1.055-.388-2.008-1.238-.742-.663-1.242-1.48-1.388-1.73-.145-.25-.015-.388.11-.513.112-.112.25-.288.375-.433.125-.145.167-.25.25-.413.083-.162.042-.305-.02-.43-.063-.125-.555-1.337-.762-1.83-.2-.48-.405-.415-.555-.423l-.473-.008c-.163 0-.43.062-.654.313-.226.25-.862.843-.862 2.054 0 1.212.882 2.383 1.006 2.547.125.163 1.736 2.65 4.208 3.717.588.254 1.047.405 1.404.52.59.187 1.126.16 1.55.098.473-.07 1.455-.595 1.66-1.17.205-.575.205-1.07.144-1.17-.062-.1-.225-.162-.475-.287z" fill="white"/>
</svg>
